<svg width="76" height="76" viewBox="0 0 76 76" fill="none" xmlns="http://www.w3.org/2000/svg">
<path fill-rule="evenodd" clip-rule="evenodd" d="M38 38V19.25H23.9375C21.3487 19.25 19.25 21.3487 19.25 23.9375V52.0625C19.25 54.6513 21.3487 56.75 23.9375 56.75H38H52.0625C54.6513 56.75 56.75 54.6513 56.75 52.0625V38H38ZM12.5182 0.5H63.4818C67.6608 0.5 69.1762 0.93512 70.704 1.75218C72.2317 2.56925 73.4307 3.76826 74.2478 5.29604C75.0649 6.82381 75.5 8.33922 75.5 12.5182V63.4818C75.5 67.6608 75.0649 69.1762 74.2478 70.704C73.4307 72.2317 72.2317 73.4307 70.704 74.2478C69.1762 75.0649 67.6608 75.5 63.4818 75.5H12.5182C8.33922 75.5 6.82381 75.0649 5.29604 74.2478C3.76826 73.4307 2.56925 72.2317 1.75218 70.704C0.935121 69.1762 0.5 67.6608 0.5 63.4818V12.5182C0.5 8.33922 0.93512 6.82381 1.75218 5.29604C2.56925 3.76826 3.76826 2.56925 5.29604 1.75218C6.82381 0.935121 8.33922 0.5 12.5182 0.5V0.5ZM47.375 9.875V28.625H66.125V15.8841C66.125 13.7946 65.9074 13.0369 65.4989 12.273C65.0904 11.5091 64.4909 10.9096 63.727 10.5011C62.9631 10.0926 62.2054 9.875 60.1159 9.875H47.375Z" fill="white"/>
</svg>
