<svg xmlns="http://www.w3.org/2000/svg" width="496" height="128" viewBox="0 0 496 128">
  <g fill="#FFF" fill-rule="evenodd">
    <path d="M214.962162 101.728732L170 101.728732 170 25 184.979345 25 184.979345 88.3658626 214.962162 88.3658626 214.962162 101.728732zM270.501586 78.0204156L235.370172 78.0204156C235.370172 81.7562902 236.465773 84.773682 238.657007 87.0726817 240.848241 89.3716814 243.847672 90.521164 247.655391 90.521164 252.612609 90.521164 256.851326 88.7610188 260.371669 85.2406755L268.88511 93.5385861C265.795829 96.6278669 262.778437 98.8190682 259.832844 100.112255 256.456188 101.620974 252.361156 102.375322 247.547625 102.375322 230.233284 102.375322 221.576243 92.7843265 221.576243 73.6020477 221.576243 64.6215801 223.839287 57.5450777 228.365443 52.3723284 232.747911 47.4151103 238.639009 44.9365384 246.038914 44.9365384 253.654351 44.9365384 259.689135 47.4869529 264.143447 52.5878585 268.382227 57.4732329 270.501586 63.8672299 270.501586 71.7700414L270.501586 78.0204156zM256.707657 68.4293242C256.635813 66.1303245 256.204757 64.1187299 255.414476 62.3944801 253.690226 58.5149181 250.56507 56.5751662 246.038914 56.5751662 241.512759 56.5751662 238.387603 58.5149181 236.663353 62.3944801 235.873072 64.1187299 235.442016 66.1303245 235.370172 68.4293242L256.707657 68.4293242zM327.873016 78.0204156L292.741603 78.0204156C292.741603 81.7562902 293.837203 84.773682 296.028437 87.0726817 298.219672 89.3716814 301.219103 90.521164 305.026821 90.521164 309.984039 90.521164 314.222756 88.7610188 317.7431 85.2406755L326.25654 93.5385861C323.167259 96.6278669 320.149868 98.8190682 317.204274 100.112255 313.827618 101.620974 309.732587 102.375322 304.919056 102.375322 287.604714 102.375322 278.947673 92.7843265 278.947673 73.6020477 278.947673 64.6215801 281.210717 57.5450777 285.736873 52.3723284 290.119341 47.4151103 296.01044 44.9365384 303.410345 44.9365384 311.025781 44.9365384 317.060565 47.4869529 321.514877 52.5878585 325.753658 57.4732329 327.873016 63.8672299 327.873016 71.7700414L327.873016 78.0204156zM314.079087 68.4293242C314.007243 66.1303245 313.576187 64.1187299 312.785906 62.3944801 311.061656 58.5149181 307.936501 56.5751662 303.410345 56.5751662 298.884189 56.5751662 295.759033 58.5149181 294.034784 62.3944801 293.244502 64.1187299 292.813446 66.1303245 292.741603 68.4293242L314.079087 68.4293242zM381.580434 101.728732L367.89427 101.728732 367.89427 96.8793033C364.302083 100.47149 359.704153 102.267557 354.100341 102.267557 347.778092 102.267557 343.036476 100.651097 339.875351 97.4181287 336.714227 94.1851603 335.133688 89.9464432 335.133688 84.7018501 335.133688 79.9601632 336.768109 76.0626988 340.036999 73.0093398 343.305889 69.9559808 348.065466 68.4293242 354.315871 68.4293242L367.570975 68.4293242 367.570975 65.6274323C367.570975 59.7362456 364.086606 56.7906964 357.117763 56.7906964 352.591607 56.7906964 348.999474 58.3353136 346.341256 61.4245945L337.396755 52.6956236C340.054973 49.7500302 342.964601 47.7025143 346.125726 46.5530145 348.999475 45.4753584 352.843058 44.9365384 357.656588 44.9365384 373.605899 44.9365384 381.580434 51.5460634 381.580434 64.7653117L381.580434 101.728732zM367.570975 81.0378377L367.570975 78.0204156 356.471172 78.0204156C351.226579 78.0204156 348.604322 80.1397742 348.604322 84.3785549 348.604322 88.6891794 351.298422 90.8444593 356.686703 90.8444593 361.500233 90.8444593 364.697232 89.6590553 366.277794 87.2882119 367.139919 85.9950245 367.570975 83.9115873 367.570975 81.0378377zM439.70622 101.728732L426.020056 101.728732 426.020056 96.448243C422.499713 100.399649 417.865861 102.375322 412.118362 102.375322 406.299019 102.375322 401.701088 100.687019 398.324432 97.3103636 395.809902 94.7958327 394.15752 91.2036995 393.367239 86.5338564 392.864333 83.6601067 392.612884 79.3495469 392.612884 73.6020477 392.612884 67.9263921 392.864333 63.6517537 393.367239 60.778004 394.15752 56.1081609 395.809902 52.5160277 398.324432 50.0014968 401.701088 46.624841 406.263097 44.9365384 412.010597 44.9365384 417.758096 44.9365384 422.320105 46.8044476 425.696761 50.5403222L425.696761 25 439.70622 25 439.70622 101.728732zM425.696761 73.6020477C425.696761 68.2856108 425.157941 64.4779497 424.080285 62.17895 422.64341 59.0896691 419.985231 57.5450519 416.105669 57.5450519 412.010576 57.5450519 409.244634 59.3411185 407.807759 62.9333055 407.017478 65.0886177 406.622343 68.6448296 406.622343 73.6020477 406.622343 78.5592658 407.017478 82.1154776 407.807759 84.2707898 409.244634 87.9348206 412.010576 89.7668085 416.105669 89.7668085 419.985231 89.7668085 422.64341 88.2221913 424.080285 85.1329104 425.157941 82.762067 425.696761 78.9184845 425.696761 73.6020477zM496 84.0552597C496 90.0182902 493.701035 94.6162206 489.103035 97.849189 484.792411 100.866626 479.152762 102.375322 472.183919 102.375322 466.939326 102.375322 462.664687 101.908345 459.359875 100.974376 455.192938 99.7530325 451.493041 97.5259099 448.260073 94.2929416L457.420104 85.1329104C460.940447 88.6532537 465.933512 90.413399 472.399449 90.413399 479.009073 90.413399 482.313836 88.4736471 482.313836 84.5940851 482.313836 81.5048042 480.338163 79.7805803 476.386757 79.4213616L467.550021 78.559241C456.629772 77.4815849 451.16973 72.2370705 451.16973 62.8255404 451.16973 57.2217286 453.360931 52.7674835 457.743399 49.4626714 461.766649 46.4452343 466.795635 44.9365384 472.830509 44.9365384 482.457571 44.9365384 489.605916 47.1277396 494.275759 51.5102078L485.654553 60.2391787C482.852647 57.7246478 478.506166 56.4674012 472.614979 56.4674012 467.298542 56.4674012 464.640364 58.2634677 464.640364 61.8556548 464.640364 64.7294044 466.580116 66.3458643 470.459678 66.705083L479.296414 67.5672036C490.432194 68.6448597 496 74.1408235 496 84.0552597zM64 64L64 32 40 32C35.581722 32 32 35.581722 32 40L32 88C32 92.418278 35.581722 96 40 96L64 96 88 96C92.418278 96 96 92.418278 96 88L96 64 64 64zM20.5110816-8.28672246e-16L107.488918 8.28672246e-16C114.621068-4.81482439e-16 117.207358.742604889 119.814766 2.13706163 122.422173 3.53151837 124.468482 5.57782696 125.862938 8.18523437 127.257395 10.7926418 128 13.3789317 128 20.5110816L128 107.488918C128 114.621068 127.257395 117.207358 125.862938 119.814766 124.468482 122.422173 122.422173 124.468482 119.814766 125.862938 117.207358 127.257395 114.621068 128 107.488918 128L20.5110816 128C13.3789317 128 10.7926418 127.257395 8.18523437 125.862938 5.57782696 124.468482 3.53151837 122.422173 2.13706163 119.814766.742604889 117.207358 3.20988293e-16 114.621068-5.52448164e-16 107.488918L5.52448164e-16 20.5110816C-3.20988293e-16 13.3789317.742604889 10.7926418 2.13706163 8.18523437 3.53151837 5.57782696 5.57782696 3.53151837 8.18523437 2.13706163 10.7926418.742604889 13.3789317 4.81482439e-16 20.5110816-8.28672246e-16zM80 16L80 48 112 48 112 26.2555408C112 22.6894658 111.628698 21.3963209 110.931469 20.0926172 110.234241 18.7889135 109.211087 17.7657592 107.907383 17.0685308 106.603679 16.3713024 105.310534 16 101.744459 16L80 16z"/>
  </g>
</svg>
