<svg width="18" height="19" viewBox="0 0 18 19" fill="none" xmlns="http://www.w3.org/2000/svg">
<path d="M3.69141 6.68359C4.11328 7.14062 4.85156 7.14062 5.27344 6.68359L7.875 4.11719V12.625C7.875 13.2578 8.36719 13.75 9 13.75C9.59766 13.75 10.125 13.2578 10.125 12.625V4.11719L12.6914 6.68359C13.1133 7.14062 13.8516 7.14062 14.2734 6.68359C14.7305 6.26172 14.7305 5.52344 14.2734 5.10156L9.77344 0.601562C9.5625 0.390625 9.28125 0.25 9 0.25C8.68359 0.25 8.40234 0.390625 8.19141 0.601562L3.69141 5.10156C3.23438 5.52344 3.23438 6.26172 3.69141 6.68359ZM16.875 12.625H11.25C11.25 13.8906 10.2305 14.875 9 14.875C7.73438 14.875 6.75 13.8906 6.75 12.625H1.125C0.492188 12.625 0 13.1523 0 13.75V17.125C0 17.7578 0.492188 18.25 1.125 18.25H16.875C17.4727 18.25 18 17.7578 18 17.125V13.75C18 13.1523 17.4727 12.625 16.875 12.625ZM15.1875 16.2812C14.6953 16.2812 14.3438 15.9297 14.3438 15.4375C14.3438 14.9805 14.6953 14.5938 15.1875 14.5938C15.6445 14.5938 16.0312 14.9805 16.0312 15.4375C16.0312 15.9297 15.6445 16.2812 15.1875 16.2812Z" fill="#FDFFFE"/>
</svg>
