<svg width="17" height="12" viewBox="0 0 17 12" fill="none" xmlns="http://www.w3.org/2000/svg">
<path d="M16.375 1.25C16.375 1.56641 16.2344 1.84766 16.0234 2.05859L7.02344 11.0586C6.8125 11.2695 6.53125 11.375 6.25 11.375C5.93359 11.375 5.65234 11.2695 5.44141 11.0586L0.941406 6.55859C0.730469 6.34766 0.625 6.06641 0.625 5.75C0.625 5.11719 1.11719 4.625 1.75 4.625C2.03125 4.625 2.3125 4.76562 2.52344 4.97656L6.25 8.66797L14.4414 0.476562C14.6523 0.265625 14.9336 0.125 15.25 0.125C15.8477 0.125 16.375 0.617188 16.375 1.25Z" fill="#FDFFFE"/>
</svg>
