<svg width="51" height="51" viewBox="0 0 51 51" fill="none" xmlns="http://www.w3.org/2000/svg">
<path d="M12.514 15.7125L23.9452 5.6375V36.25C23.9452 37.1219 24.6234 37.8 25.4952 37.8C26.2702 37.8 27.0452 37.1219 27.0452 36.25V5.6375L38.3796 15.7125C38.6702 16.0031 39.0577 16.1 39.4452 16.1C39.8327 16.1 40.2202 16.0031 40.5109 15.6156C41.0921 15.0344 41.0921 13.9687 40.414 13.4844L26.464 1.08437C25.8827 0.50312 25.0109 0.50312 24.4296 1.08437L10.4796 13.4844C9.80149 13.9687 9.80149 14.9375 10.3827 15.6156C10.8671 16.2937 11.9327 16.2937 12.514 15.7125ZM44.0952 31.6H33.2452C32.3734 31.6 31.6952 32.375 31.6952 33.15C31.6952 34.0219 32.3734 34.7 33.2452 34.7H44.0952C45.7421 34.7 47.1952 36.1531 47.1952 37.8V44C47.1952 45.7438 45.7421 47.1 44.0952 47.1H6.89524C5.15149 47.1 3.79524 45.7438 3.79524 44V37.8C3.79524 36.1531 5.15149 34.7 6.89524 34.7H17.7452C18.5202 34.7 19.2952 34.0219 19.2952 33.15C19.2952 32.375 18.5202 31.6 17.7452 31.6H6.89524C3.40774 31.6 0.695236 34.4094 0.695236 37.8V44C0.695236 47.4875 3.40774 50.2 6.89524 50.2H44.0952C47.4859 50.2 50.2952 47.4875 50.2952 44V37.8C50.2952 34.4094 47.4859 31.6 44.0952 31.6ZM43.3202 40.9C43.3202 39.6406 42.2546 38.575 40.9952 38.575C39.639 38.575 38.6702 39.6406 38.6702 40.9C38.6702 42.2562 39.639 43.225 40.9952 43.225C42.2546 43.225 43.3202 42.2562 43.3202 40.9Z" fill="white"/>
</svg>
